<svg xmlns="http://www.w3.org/2000/svg" width="652" height="621" viewBox="0 0 652 621">
<g>
<path d="M 281.01 559.48 C260.02,562.03 250.49,560.94 228.00,553.40 C174.10,535.34 128.84,496.51 98.64,442.42 C85.74,419.32 73.19,384.23 69.09,359.81 C53.31,265.92 83.92,178.98 153.43,120.21 C162.03,112.94 174.73,104.40 175.62,105.29 C175.86,105.53 169.21,111.97 160.84,119.61 C137.68,140.75 132.00,146.19 132.00,147.20 C132.00,147.70 134.14,146.33 136.75,144.13 C139.36,141.94 145.14,138.34 149.59,136.13 C154.14,133.87 160.49,129.57 164.12,126.30 C180.91,111.16 193.98,100.74 208.26,91.10 C210.88,89.34 214.12,86.79 215.46,85.45 C216.81,84.10 219.08,83.00 220.50,83.00 C221.93,83.00 224.51,82.27 226.24,81.38 C232.01,78.39 243.20,75.04 249.53,74.39 C255.24,73.80 255.89,73.93 256.93,75.87 C257.89,77.66 258.98,78.00 263.70,78.00 C266.80,78.00 269.12,78.21 268.86,78.48 C268.59,78.74 264.45,80.09 259.65,81.48 C249.76,84.35 236.00,89.90 236.00,91.02 C236.00,91.43 241.96,90.00 249.25,87.85 C260.94,84.39 277.16,80.56 295.25,76.99 C298.41,76.37 301.00,75.60 301.00,75.29 C301.00,74.98 298.30,74.97 295.00,75.27 C284.28,76.24 287.75,74.36 300.29,72.40 C309.61,70.95 317.83,70.50 335.00,70.50 C355.98,70.50 358.38,70.69 370.50,73.33 C404.85,80.82 432.70,92.20 459.50,109.72 C501.13,136.92 535.27,178.62 551.45,222.00 C553.19,226.68 555.78,231.76 557.21,233.29 C561.16,237.54 562.28,244.14 558.52,241.02 C557.25,239.96 557.00,240.07 557.00,241.70 C557.00,242.76 557.65,245.86 558.44,248.57 C561.35,258.51 565.33,284.00 563.97,284.00 C562.87,284.00 560.21,276.35 557.93,266.64 C553.58,248.08 548.71,234.52 540.44,218.00 C525.79,188.72 506.37,161.99 485.05,141.73 C457.45,115.51 427.65,99.09 387.00,87.68 C367.33,82.16 349.80,80.00 324.67,80.00 C289.67,80.00 261.56,85.79 227.21,100.07 C218.07,103.86 199.57,113.27 194.01,116.95 C165.00,136.15 145.84,153.19 130.31,173.59 C98.53,215.34 84.02,257.33 84.00,307.56 C83.99,354.73 96.21,396.88 121.82,438.00 C146.13,477.04 174.97,504.10 210.25,520.97 C237.78,534.14 256.66,537.75 291.50,536.51 C312.70,535.75 313.44,535.93 314.47,542.00 C315.16,546.04 312.69,550.84 308.53,553.57 C305.22,555.74 296.61,557.59 281.01,559.48 ZM 305.77 389.75 L 305.50 414.50 L 289.97 414.77 C278.74,414.97 274.11,414.71 273.22,413.82 C272.30,412.90 272.00,403.31 272.00,374.91 L 272.00 337.22 L 295.25 315.81 C308.04,304.03 319.08,294.04 319.79,293.61 C321.24,292.73 321.29,292.78 349.76,319.29 L 369.02 337.23 L 368.76 375.87 L 368.50 414.50 L 352.58 414.78 C340.51,414.99 336.45,414.74 335.84,413.78 C335.40,413.07 335.02,401.81 335.02,388.75 L 335.00 365.00 L 306.03 365.00 ZM 277.00 339.19 L 277.00 410.00 L 300.97 410.00 L 301.23 385.25 L 301.50 360.50 L 339.50 360.50 L 339.77 385.25 L 340.03 410.00 L 364.00 410.00 L 364.00 338.11 L 361.75 336.54 C360.51,335.67 357.48,333.02 355.00,330.65 C352.52,328.28 343.83,320.17 335.68,312.64 L 320.86 298.94 L 317.68 301.60 C315.93,303.06 306.06,312.12 295.75,321.73 ZM 273.00 529.33 C274.38,529.55 272.58,529.74 269.00,529.76 C251.30,529.83 224.39,521.40 201.00,508.45 C160.15,485.83 125.93,444.60 106.41,394.50 C95.04,365.33 90.99,343.26 91.01,310.54 C91.04,256.59 108.44,209.72 143.60,168.88 C151.36,159.87 156.63,155.00 158.62,155.00 C159.07,155.00 156.95,157.59 153.90,160.75 C131.70,183.82 112.28,218.49 102.63,252.31 C82.74,321.98 97.80,397.45 142.75,453.36 C150.15,462.56 166.77,479.20 176.04,486.70 C203.29,508.70 237.19,523.61 273.00,529.33 ZM 82.00 392.72 C82.00,392.87 82.50,393.00 83.11,393.00 C83.75,393.00 83.93,392.27 83.53,391.25 C82.39,388.32 77.24,363.16 75.49,352.00 C74.48,345.52 73.65,332.11 73.32,317.00 C72.86,295.60 73.06,290.48 74.93,276.50 C77.57,256.82 82.62,236.81 89.01,220.71 C95.94,203.25 111.13,175.21 120.18,163.17 C122.38,160.24 123.97,157.63 123.71,157.38 C122.15,155.81 102.47,184.32 94.29,200.00 C85.53,216.79 77.95,236.92 73.40,255.49 C70.44,267.58 67.00,296.10 67.01,308.50 C67.03,334.91 71.76,363.50 79.89,386.47 C81.05,389.75 82.00,392.56 82.00,392.72 ZM 275.28 328.25 C268.92,334.12 266.65,335.13 265.65,332.54 C265.28,331.57 270.82,325.82 282.29,315.29 C291.75,306.61 303.96,295.32 309.44,290.21 C315.46,284.57 320.06,281.03 321.10,281.21 C323.08,281.54 376.00,330.59 376.00,332.08 C376.00,332.62 375.32,333.32 374.49,333.64 C372.76,334.30 369.30,331.36 341.00,305.09 C330.27,295.14 321.12,287.00 320.65,287.00 C320.18,287.00 311.18,294.99 300.65,304.75 C290.13,314.51 278.71,325.09 275.28,328.25 ZM 222.00 306.50 C180.20,308.38 98.00,308.13 98.00,306.12 C98.00,303.51 229.75,301.56 261.00,303.70 L 275.50 304.70 L 265.00 304.87 C259.23,304.96 239.88,305.69 222.00,306.50 ZM 511.92 304.87 C496.87,305.99 366.80,307.31 363.75,306.38 C358.46,304.78 364.41,304.03 385.25,303.67 C398.04,303.44 433.70,302.68 464.50,301.97 C516.98,300.75 533.68,301.03 528.42,303.02 C527.27,303.46 519.85,304.29 511.92,304.87 ZM 320.10 234.96 C318.89,257.03 317.98,263.03 316.64,257.72 C315.92,254.83 316.77,105.90 317.51,105.15 C317.78,104.89 318.22,104.89 318.49,105.16 C318.77,105.43 319.52,129.70 320.16,159.08 C321.08,200.95 321.06,217.35 320.10,234.96 ZM 176.36 142.75 C173.91,146.19 171.70,149.00 171.45,149.00 C171.20,149.00 171.00,147.76 171.00,146.23 C171.00,142.36 181.78,131.00 185.46,131.00 C187.25,131.00 190.12,129.08 194.78,124.75 C201.43,118.56 201.50,118.53 201.82,121.25 C202.35,125.87 205.47,124.73 209.50,118.44 C213.05,112.89 218.53,109.22 221.55,110.38 C222.28,110.66 226.84,108.67 231.69,105.95 C236.53,103.23 241.18,101.02 242.00,101.05 C244.81,101.12 232.54,111.03 219.50,119.21 C212.35,123.70 201.03,131.11 194.35,135.68 C187.66,140.26 181.70,144.00 181.10,144.00 C179.12,144.00 179.94,142.19 184.13,137.35 C186.60,134.49 187.78,132.43 187.06,132.19 C185.41,131.64 181.66,135.34 176.36,142.75 ZM 361.50 265.12 C351.47,274.19 350.00,275.26 350.00,273.52 C350.00,270.92 436.63,184.26 437.94,185.55 C438.69,186.30 435.24,190.42 426.24,199.55 C419.21,206.67 407.12,219.48 399.37,228.00 C387.09,241.51 380.76,247.71 361.50,265.12 ZM 368.22 287.36 C364.15,289.43 361.00,290.25 361.00,289.23 C361.00,288.37 377.64,280.00 379.36,280.00 C379.81,280.00 388.58,276.12 398.84,271.38 C409.10,266.64 424.02,260.61 432.00,257.98 C439.98,255.36 453.42,250.44 461.87,247.06 C477.31,240.89 481.86,239.83 476.42,243.69 C473.73,245.60 394.94,277.45 378.22,283.39 C374.22,284.81 369.72,286.60 368.22,287.36 ZM 280.86 265.75 C283.79,269.19 285.73,272.00 285.15,272.00 C282.96,272.00 271.63,261.40 246.50,235.85 C203.53,192.17 190.17,176.59 215.62,199.87 C229.14,212.23 272.82,256.34 280.86,265.75 ZM 275.39 288.18 C275.28,288.36 275.23,288.52 275.13,288.63 C274.69,289.11 273.17,288.61 260.36,284.33 C259.16,283.93 257.86,283.50 256.46,283.03 C238.02,276.88 219.61,269.69 208.50,264.30 C200.62,260.48 186.61,254.47 177.25,250.90 C171.78,248.81 169.27,247.00 171.84,247.00 C173.18,247.00 183.49,250.67 189.77,253.38 C196.10,256.10 208.94,260.91 225.00,266.56 C230.77,268.60 242.25,273.29 250.50,276.99 C258.75,280.69 267.84,284.54 270.70,285.54 C273.56,286.54 275.67,287.73 275.39,288.18 ZM 346.67 241.23 C340.53,253.18 335.16,262.97 334.75,262.98 C334.34,262.99 334.00,262.89 334.00,262.75 C334.01,260.30 352.66,218.02 359.04,206.00 C361.81,200.77 367.17,190.14 370.95,182.36 C377.06,169.80 380.00,165.06 380.00,167.76 C380.00,168.24 377.03,175.13 373.39,183.07 C369.76,191.01 364.77,202.45 362.31,208.50 C359.85,214.55 352.81,229.28 346.67,241.23 ZM 297.99 254.25 C299.02,257.96 299.53,261.00 299.10,261.00 C296.84,261.00 284.22,226.89 278.01,203.97 C275.70,195.46 272.25,183.85 270.33,178.16 C268.41,172.48 267.10,167.56 267.42,167.24 C267.74,166.93 268.16,166.85 268.36,167.08 C270.48,169.52 292.08,233.06 297.99,254.25 ZM 232.40 498.27 C234.66,499.96 233.35,501.10 230.50,499.93 C212.58,492.55 201.92,486.11 187.50,473.95 C176.27,464.48 156.39,445.29 157.08,444.59 C157.39,444.27 160.32,446.60 163.58,449.76 C183.15,468.70 192.16,475.54 212.00,486.50 C226.98,494.78 230.25,496.66 232.40,498.27 ZM 396.50 291.00 C383.30,293.22 371.26,295.29 369.75,295.60 C368.24,295.91 367.00,295.73 367.00,295.20 C367.00,294.68 368.24,293.98 369.75,293.66 C371.26,293.33 377.90,291.89 384.50,290.46 C406.74,285.64 452.09,277.90 457.30,278.03 C464.19,278.20 432.99,284.86 396.50,291.00 ZM 406.00 249.76 C392.08,259.54 358.00,280.30 358.00,279.00 C358.00,277.45 367.32,270.95 392.00,255.30 C404.92,247.10 417.48,238.96 419.90,237.20 C422.32,235.44 424.97,234.00 425.78,234.00 C427.59,234.00 421.23,239.06 406.00,249.76 ZM 278.00 278.59 C278.00,280.52 268.61,274.89 245.71,259.24 C228.72,247.62 207.75,231.92 208.38,231.29 C209.32,230.34 278.00,277.01 278.00,278.59 ZM 329.78 255.50 C328.34,260.65 327.00,262.18 327.00,258.68 C327.00,248.03 340.87,181.00 343.07,181.00 C343.48,181.00 343.64,181.79 343.43,182.75 C341.26,192.74 337.40,213.36 334.48,230.50 C332.51,242.05 330.40,253.30 329.78,255.50 ZM 325.21 345.00 C324.35,345.00 322.84,345.74 321.85,346.64 C320.18,348.15 320.00,348.15 319.41,346.64 C319.07,345.74 318.30,345.00 317.71,345.00 C317.12,345.00 314.69,344.06 312.32,342.91 C308.94,341.28 308.00,340.28 308.00,338.33 C308.00,335.35 310.05,335.62 311.48,338.79 C312.42,340.87 317.56,343.77 318.55,342.78 C318.82,342.52 319.32,337.96 319.67,332.65 L 320.30 323.00 L 317.65 323.00 C316.19,323.00 315.00,322.55 315.00,322.00 C315.00,321.45 316.19,321.00 317.65,321.00 C320.18,321.00 320.23,320.91 318.63,319.14 C316.46,316.74 317.53,314.00 320.64,314.00 C323.53,314.00 324.77,316.54 323.15,319.13 C322.16,320.72 322.28,321.00 323.99,321.00 C325.10,321.00 326.00,321.45 326.00,322.00 C326.00,322.55 325.10,323.00 324.00,323.00 C322.13,323.00 322.00,323.67 322.00,333.00 C322.00,342.14 322.16,343.00 323.89,343.00 C325.79,343.00 331.34,339.10 329.53,339.03 C328.99,339.01 329.58,338.28 330.84,337.40 C333.62,335.45 334.45,336.07 333.60,339.45 C333.20,341.04 332.26,342.00 331.10,342.00 C330.08,342.00 328.68,342.67 328.00,343.50 C327.32,344.33 326.06,345.00 325.21,345.00 ZM 268.42 295.13 C268.12,295.61 267.57,295.95 267.19,295.88 C262.76,295.12 251.78,293.29 234.00,290.36 C206.84,285.88 187.91,282.26 187.12,281.39 C185.53,279.66 215.72,284.17 252.73,291.18 C261.66,292.87 268.72,294.65 268.42,295.13 ZM 360.77 245.00 C351.77,257.88 344.12,267.26 344.04,265.50 C343.95,263.28 385.98,203.00 387.62,203.00 C388.72,203.00 373.72,226.46 360.77,245.00 ZM 288.82 258.25 C290.58,261.41 291.54,264.00 290.97,264.00 C290.39,264.00 283.80,254.66 276.33,243.25 C254.18,209.42 251.53,205.13 252.27,204.39 C253.36,203.30 280.54,243.35 288.82,258.25 ZM 257.00 104.81 C253.51,106.99 243.00,108.02 243.00,106.19 C243.00,103.57 251.13,98.33 258.50,96.20 C264.64,94.42 284.78,90.76 286.07,91.19 C288.40,91.97 270.38,97.01 265.30,97.00 C260.38,97.00 255.00,98.55 255.00,99.97 C255.00,100.32 256.24,101.07 257.75,101.62 L 260.50 102.63 ZM 308.22 256.25 C308.38,258.86 308.17,261.00 307.76,261.00 C307.34,261.00 307.00,260.80 307.00,260.55 C307.00,260.30 306.13,253.89 305.06,246.30 C299.04,203.49 297.10,185.20 299.37,192.67 C301.30,199.01 307.37,242.65 308.22,256.25 ZM 433.00 112.02 C435.29,113.79 435.33,113.96 433.50,113.97 C432.40,113.97 427.90,112.40 423.50,110.47 C413.92,106.28 393.27,98.56 387.00,96.83 C383.31,95.81 382.95,95.53 385.01,95.25 C390.97,94.45 426.21,106.77 433.00,112.02 ZM 478.87 111.17 C480.66,114.03 478.19,113.50 471.94,109.67 C458.32,101.34 452.79,97.57 453.74,97.25 C456.17,96.44 476.82,107.87 478.87,111.17 ZM 307.00 62.51 C302.33,62.84 297.26,63.34 295.75,63.63 C294.24,63.92 293.00,63.73 293.00,63.20 C293.00,60.42 320.84,57.31 322.45,59.91 C323.10,60.97 318.87,61.68 307.00,62.51 ZM 440.42 87.13 C439.55,88.54 438.11,88.15 425.82,83.18 C412.94,77.99 410.44,76.47 416.50,77.51 C425.01,78.99 441.38,85.57 440.42,87.13 ZM 363.46 89.07 C363.14,89.58 360.77,89.91 358.19,89.81 C345.47,89.28 341.00,88.83 341.00,88.07 C341.00,86.82 351.48,85.75 356.30,86.49 C362.48,87.45 364.10,88.04 363.46,89.07 ZM 256.24 507.97 C260.37,509.80 260.41,509.86 257.50,509.90 C254.58,509.93 244.61,506.95 243.31,505.65 C242.96,505.29 242.96,504.70 243.33,504.34 C244.10,503.57 250.19,505.28 256.24,507.97 ZM 208.00 103.69 C208.00,104.57 209.93,103.94 213.75,101.81 C223.45,96.39 225.56,95.00 224.00,95.08 C219.88,95.28 208.00,101.67 208.00,103.69 ZM 391.86 68.38 C387.27,69.30 379.00,69.13 379.00,68.12 C379.00,66.25 393.32,65.09 394.42,66.88 C394.72,67.36 393.57,68.04 391.86,68.38 ZM 158.84 186.74 C157.50,191.12 156.00,191.81 156.00,188.03 C156.00,184.28 158.49,178.00 159.97,178.00 C161.06,178.00 160.73,180.49 158.84,186.74 ZM 189.04 116.71 C189.06,117.14 190.45,115.93 192.11,114.00 C199.12,105.92 200.34,102.97 195.21,106.57 C193.14,108.02 188.95,114.91 189.04,116.71 ZM 213.00 118.58 C213.00,119.88 213.34,119.88 215.85,118.58 C219.04,116.93 222.80,112.00 220.87,112.00 C218.95,112.00 213.00,116.98 213.00,118.58 ZM 286.57 511.89 C285.75,513.21 283.38,513.23 280.19,511.95 C277.27,510.78 278.25,509.00 281.81,509.02 C285.17,509.03 287.47,510.42 286.57,511.89 ZM 308.50 508.99 C307.95,509.02 305.84,509.43 303.80,509.91 C301.77,510.38 299.89,510.56 299.63,510.30 C298.92,509.59 302.82,506.00 304.31,506.00 C305.87,506.00 309.95,508.91 308.50,508.99 ZM 275.44 511.10 C274.87,512.02 271.85,512.12 268.75,511.31 C266.70,510.78 266.37,508.00 268.35,508.00 C270.95,508.00 275.99,510.20 275.44,511.10 ZM 574.00 295.11 C574.00,296.15 573.53,297.00 572.95,297.00 C571.66,297.00 568.63,290.04 569.53,289.14 C570.47,288.20 574.00,292.91 574.00,295.11 ZM 202.01 88.17 C202.96,88.49 202.27,89.81 199.71,92.56 C197.13,95.34 196.05,96.00 196.03,94.81 C195.99,92.45 200.35,87.62 202.01,88.17 ZM 511.05 162.73 C512.90,163.91 514.75,164.65 515.16,164.40 C516.55,163.54 514.80,160.99 512.43,160.39 C508.29,159.35 507.59,160.54 511.05,162.73 ZM 295.00 530.50 C295.00,531.97 291.93,532.42 289.24,531.34 C287.14,530.49 288.93,529.00 292.06,529.00 C294.01,529.00 295.00,529.51 295.00,530.50 ZM 159.00 136.45 C159.00,138.09 161.15,136.60 162.47,134.05 C164.26,130.60 164.34,130.00 163.03,130.00 C162.16,130.00 159.00,135.06 159.00,136.45 ZM 341.56 61.43 C339.38,63.20 332.91,63.69 334.64,61.96 C335.21,61.39 337.43,60.69 339.59,60.39 C343.27,59.89 343.38,59.95 341.56,61.43 ZM 308.60 76.16 C309.42,77.49 314.26,76.77 314.76,75.25 C314.99,74.53 314.32,74.00 313.17,74.00 C310.20,74.00 307.93,75.08 308.60,76.16 ZM 518.32 172.55 C519.87,173.91 521.59,174.75 522.14,174.42 C523.64,173.48 520.03,169.99 517.60,170.03 C515.66,170.06 515.71,170.25 518.32,172.55 ZM 288.97 517.04 C287.07,518.24 285.00,518.26 285.00,517.07 C285.00,515.90 288.92,514.59 289.80,515.46 C290.15,515.82 289.78,516.53 288.97,517.04 ZM 131.71 396.29 C133.88,398.45 132.93,399.40 130.43,397.57 C129.37,396.80 128.85,395.82 129.28,395.39 C129.70,394.97 130.80,395.37 131.71,396.29 ZM 405.50 89.00 C405.16,89.55 405.78,90.00 406.88,90.00 C407.98,90.00 409.16,89.55 409.50,89.00 C409.84,88.45 409.22,88.00 408.12,88.00 C407.02,88.00 405.84,88.45 405.50,89.00 Z" fill="rgb(8,7,13)"/>
<path d="M 299.58 193.42 C299.51,193.13 299.44,192.88 299.37,192.67 C297.10,185.20 299.04,203.49 305.06,246.30 C305.65,250.47 306.17,254.28 306.53,256.91 C305.03,247.34 298.06,194.83 297.47,188.50 C297.07,184.22 297.14,183.93 297.98,186.50 C298.40,187.78 298.95,190.21 299.58,193.42 ZM 280.58 66.00 C279.25,66.00 277.34,66.29 276.33,66.65 C275.08,67.09 274.81,66.97 275.50,66.25 C277.00,64.69 283.00,63.62 283.00,64.92 C283.00,65.51 281.91,66.00 280.58,66.00 ZM 301.00 75.30 C300.97,74.99 297.38,75.06 293.00,75.44 C287.56,75.91 285.00,75.80 285.00,75.07 C285.00,74.48 286.35,74.00 288.01,74.00 C289.38,74.00 293.56,73.48 298.00,72.78 C287.37,74.58 284.96,76.18 295.00,75.27 C298.30,74.97 301.00,74.98 301.00,75.29 ZM 304.14 509.88 C301.26,510.49 297.69,510.95 296.20,510.90 C293.85,510.80 294.00,510.63 297.44,509.57 C299.61,508.90 301.56,507.82 301.77,507.18 C302.04,506.38 302.89,506.01 303.97,506.05 C302.31,506.48 298.97,509.64 299.63,510.30 C299.89,510.56 301.77,510.38 303.80,509.91 C304.85,509.66 305.91,509.44 306.78,509.27 C306.12,509.44 305.25,509.64 304.14,509.88 ZM 380.00 94.00 C380.00,95.19 378.26,95.19 375.50,94.00 C373.82,93.28 374.03,93.13 376.75,93.07 C378.54,93.03 380.00,93.45 380.00,94.00 ZM 289.00 64.00 C289.00,64.55 288.10,65.00 287.00,65.00 C285.90,65.00 285.00,64.55 285.00,64.00 C285.00,63.45 285.90,63.00 287.00,63.00 C288.10,63.00 289.00,63.45 289.00,64.00 ZM 275.50 77.00 C275.84,77.55 275.19,78.00 274.06,78.00 C272.93,78.00 272.00,77.55 272.00,77.00 C272.00,76.45 272.65,76.00 273.44,76.00 C274.23,76.00 275.16,76.45 275.50,77.00 ZM 281.00 76.00 C281.00,76.55 280.07,77.00 278.94,77.00 C277.81,77.00 277.16,76.55 277.50,76.00 C277.84,75.45 278.77,75.00 279.56,75.00 C280.35,75.00 281.00,75.45 281.00,76.00 ZM 300.29 72.40 C300.19,72.42 300.09,72.43 299.99,72.45 C300.25,72.41 300.51,72.36 300.76,72.32 C303.61,71.83 306.72,71.46 310.54,71.19 C306.94,71.48 303.69,71.87 300.29,72.40 ZM 308.22 256.25 C308.36,258.45 308.26,259.92 308.05,260.56 C308.26,259.80 308.34,258.15 308.22,256.25 C307.92,251.50 306.99,243.10 305.82,233.90 C306.99,242.93 307.90,251.13 308.22,256.25 ZM 308.38 508.15 C307.81,507.60 306.77,506.90 305.81,506.45 C306.38,506.67 306.96,506.98 307.50,507.38 C307.93,507.69 308.24,507.94 308.38,508.15 ZM 357.58 71.06 C361.63,71.46 365.06,72.15 370.50,73.33 C365.10,72.15 361.62,71.46 357.58,71.06 Z" fill="rgb(97,88,101)"/>
<path d="M 305.77 389.75 L 306.03 365.00 L 335.00 365.00 L 335.02 388.75 C335.02,401.81 335.40,413.07 335.84,413.78 C336.45,414.74 340.51,414.99 352.58,414.78 L 367.00 414.53 C365.15,414.95 361.18,415.00 352.20,415.00 C338.55,415.00 336.13,414.77 335.61,413.42 C335.27,412.55 335.00,402.63 335.00,391.37 C335.00,371.27 334.96,370.87 332.67,368.58 C330.54,366.45 329.86,366.32 324.92,367.10 C313.61,368.87 312.27,371.23 314.45,385.54 C315.29,391.02 316.43,398.20 316.98,401.50 C319.27,415.12 317.58,418.18 306.50,420.51 C297.01,422.51 286.97,423.20 284.30,422.05 C283.09,421.53 281.39,419.73 280.53,418.05 C279.50,416.06 278.17,414.99 276.72,414.97 C275.50,414.95 273.71,414.34 272.75,413.61 C271.16,412.40 271.00,409.87 271.00,386.35 C271.00,358.27 270.33,353.17 265.37,343.50 C263.09,339.05 262.94,338.17 264.07,335.50 C264.76,333.85 265.37,332.16 265.42,331.75 C265.46,331.33 268.19,327.99 271.47,324.33 C274.75,320.66 277.52,317.04 277.63,316.29 C277.74,315.53 279.00,314.00 280.42,312.89 C281.84,311.77 283.00,310.19 283.00,309.37 C283.00,308.55 283.34,308.09 283.75,308.34 C284.16,308.59 285.08,308.16 285.79,307.40 C286.50,306.63 286.67,306.00 286.18,306.00 C285.68,306.00 286.54,304.54 288.07,302.75 C289.60,300.96 294.28,295.34 298.45,290.25 C305.46,281.72 306.33,280.99 309.77,280.88 C311.82,280.82 313.95,280.90 314.50,281.08 C315.05,281.25 317.04,281.33 318.92,281.25 C319.46,281.23 319.96,281.25 320.46,281.35 C318.74,282.06 314.62,285.36 309.44,290.21 C303.96,295.32 291.75,306.61 282.29,315.29 C270.82,325.82 265.28,331.57 265.65,332.54 C266.65,335.13 268.92,334.12 275.28,328.25 C278.71,325.09 290.13,314.51 300.65,304.75 C311.18,294.99 320.18,287.00 320.65,287.00 C321.12,287.00 330.27,295.14 341.00,305.09 C369.30,331.36 372.76,334.30 374.49,333.64 C374.77,333.53 375.04,333.38 375.27,333.20 C374.88,333.83 374.12,334.40 372.97,335.02 C371.41,335.85 371.16,335.75 371.63,334.52 C371.95,333.69 371.74,333.00 371.16,333.00 C370.59,333.00 370.32,334.01 370.58,335.25 C370.84,336.49 372.38,346.73 374.00,358.00 C375.63,369.27 377.84,383.29 378.93,389.15 C381.65,403.90 380.12,408.43 371.70,410.54 C370.32,410.89 368.96,412.03 368.69,413.08 C368.64,413.27 368.58,413.44 368.51,413.59 L 368.76 375.87 L 369.02 337.23 L 349.76 319.29 C321.29,292.78 321.24,292.73 319.79,293.61 C319.08,294.04 308.04,304.03 295.25,315.81 L 272.00 337.22 L 272.00 374.91 C272.00,403.31 272.30,412.90 273.22,413.82 C274.11,414.71 278.74,414.97 289.97,414.77 L 305.50 414.50 ZM 277.00 339.19 L 295.75 321.73 C306.06,312.12 315.93,303.06 317.68,301.60 L 320.86 298.94 L 335.68 312.64 C343.83,320.17 352.52,328.28 355.00,330.65 C357.48,333.02 360.51,335.67 361.75,336.54 L 364.00 338.11 L 364.00 379.56 C364.00,364.67 363.57,356.20 362.58,351.81 C361.80,348.34 360.96,343.60 360.71,341.28 C360.46,338.87 359.36,336.08 358.15,334.78 C356.98,333.53 355.24,331.59 354.27,330.48 C352.15,328.05 347.22,325.74 345.90,326.56 C345.38,326.88 345.01,326.78 345.09,326.32 C345.45,324.30 344.92,322.93 344.00,323.50 C343.45,323.84 343.00,323.75 343.00,323.30 C343.00,322.85 341.68,321.90 340.06,321.19 C338.44,320.47 334.84,318.07 332.06,315.86 C329.28,313.64 327.00,312.13 327.00,312.50 C327.00,312.87 325.62,312.01 323.92,310.59 C321.07,308.19 319.67,307.58 317.75,307.88 C317.34,307.95 317.00,307.52 317.00,306.94 C317.00,306.36 316.55,306.16 316.00,306.50 C315.45,306.84 315.00,306.60 315.00,305.97 C315.00,303.98 304.79,313.25 301.83,317.93 C300.27,320.39 299.00,321.84 299.00,321.16 C299.00,320.20 298.68,320.21 297.61,321.21 C296.60,322.14 296.54,322.70 297.36,323.23 C298.18,323.76 298.15,323.97 297.25,323.98 C296.56,323.99 295.99,324.56 295.99,325.25 C295.98,325.94 294.11,328.51 291.82,330.97 C285.29,338.01 280.00,346.82 280.00,350.67 C280.00,353.85 281.35,363.06 286.08,392.00 C287.20,398.88 288.61,405.51 289.23,406.75 C290.17,408.66 291.14,409.00 295.67,409.00 L 300.98 409.00 L 300.97 410.00 L 277.00 410.00 ZM 302.01 360.50 C302.01,360.49 302.02,360.49 302.03,360.48 C303.05,359.85 313.57,358.07 329.67,355.81 C336.89,354.79 338.13,354.85 340.41,356.35 C343.57,358.42 345.46,362.76 346.37,370.00 C346.74,373.02 347.49,377.75 348.02,380.50 C348.55,383.25 349.47,388.13 350.08,391.34 C351.49,398.81 353.62,401.00 359.50,401.00 L 364.00 401.00 L 364.00 410.00 L 340.03 410.00 L 339.77 385.25 L 339.50 360.50 ZM 375.45 331.31 C370.25,325.36 330.01,288.05 322.32,282.03 C324.32,283.10 327.08,285.51 332.63,290.64 C338.29,295.88 343.39,299.88 343.96,299.52 C344.53,299.17 345.44,300.03 345.98,301.44 C346.51,302.85 347.66,304.00 348.53,304.00 C349.41,304.00 349.88,304.39 349.59,304.86 C349.29,305.33 350.10,305.60 351.38,305.46 C352.75,305.31 354.27,305.99 355.08,307.10 C355.83,308.15 356.91,309.00 357.48,309.00 C358.05,309.00 359.74,310.13 361.24,311.52 C362.74,312.91 364.19,314.03 364.48,314.02 C366.61,313.93 367.26,314.07 366.82,314.52 C366.53,314.80 367.77,316.59 369.56,318.50 C371.71,320.78 372.65,322.61 372.32,323.89 C372.03,325.00 372.76,327.11 374.02,328.82 C374.75,329.80 375.23,330.61 375.45,331.31 ZM 273.00 529.33 C269.61,528.79 266.23,528.16 262.87,527.46 C268.74,528.65 273.89,529.31 277.77,529.29 C281.22,529.27 284.28,529.64 284.58,530.13 C285.47,531.58 270.41,530.93 259.04,529.05 C262.59,529.53 265.94,529.77 269.00,529.76 C272.58,529.74 274.38,529.55 273.00,529.33 ZM 328.92 87.36 C327.78,88.35 310.00,88.99 310.00,88.04 C310.00,87.39 313.67,87.00 319.67,87.00 C324.98,87.00 329.15,87.16 328.92,87.36 ZM 299.58 193.42 C298.95,190.21 298.40,187.78 297.98,186.50 C297.14,183.93 297.07,184.22 297.47,188.50 C297.62,190.09 298.17,194.61 298.94,200.63 C298.35,196.45 297.81,192.78 297.45,190.50 C295.86,180.61 295.70,178.36 296.60,179.27 C297.23,179.90 298.66,187.04 300.31,196.88 C300.04,195.44 299.79,194.27 299.58,193.42 ZM 301.00 406.77 L 301.00 385.06 C301.00,374.86 301.16,367.55 301.47,363.67 L 301.23 385.25 ZM 149.55 461.16 C146.90,458.28 144.55,455.60 142.75,453.36 C127.29,434.13 115.37,412.60 107.19,389.78 C113.02,405.89 120.75,421.41 130.34,436.00 C136.99,446.13 142.36,453.25 149.55,461.16 ZM 405.50 89.00 C405.84,88.45 407.02,88.00 408.12,88.00 C409.22,88.00 409.84,88.45 409.50,89.00 C409.16,89.55 407.98,90.00 406.88,90.00 C405.78,90.00 405.16,89.55 405.50,89.00 ZM 157.29 474.66 C136.06,453.01 118.63,425.88 106.41,394.50 C118.42,425.34 136.01,452.82 157.29,474.66 ZM 191.79 498.15 C186.33,494.58 181.07,490.76 176.04,486.70 C173.00,484.24 169.17,480.80 165.13,476.96 C173.74,484.99 182.57,492.01 191.79,498.15 ZM 230.50 521.76 C221.16,518.52 212.09,514.50 203.37,509.74 C212.20,514.47 221.46,518.55 230.50,521.76 ZM 252.80 525.08 C246.72,523.49 240.74,521.63 234.86,519.52 C240.87,521.65 246.99,523.54 252.80,525.08 Z" fill="rgb(193,182,199)"/>
<path d="M 0.00 310.50 L 0.00 0.00 L 326.00 0.00 L 652.00 0.00 L 652.00 310.50 L 652.00 621.00 L 326.00 621.00 L 0.00 621.00 L 0.00 310.50 ZM 281.01 559.48 C296.61,557.59 305.22,555.74 308.53,553.57 C312.69,550.84 315.16,546.04 314.47,542.00 C313.44,535.93 312.70,535.75 291.50,536.51 C256.66,537.75 237.78,534.14 210.25,520.97 C174.97,504.10 146.13,477.04 121.82,438.00 C96.21,396.88 83.99,354.73 84.00,307.56 C84.02,257.33 98.53,215.34 130.31,173.59 C145.84,153.19 165.00,136.15 194.01,116.95 C199.57,113.27 218.07,103.86 227.21,100.07 C261.56,85.79 289.67,80.00 324.67,80.00 C349.80,80.00 367.33,82.16 387.00,87.68 C427.65,99.09 457.45,115.51 485.05,141.73 C506.37,161.99 525.79,188.72 540.44,218.00 C548.71,234.52 553.58,248.08 557.93,266.64 C560.21,276.35 562.87,284.00 563.97,284.00 C565.33,284.00 561.35,258.51 558.44,248.57 C557.65,245.86 557.00,242.76 557.00,241.70 C557.00,240.07 557.25,239.96 558.52,241.02 C562.28,244.14 561.16,237.54 557.21,233.29 C555.78,231.76 553.19,226.68 551.45,222.00 C535.27,178.62 501.13,136.92 459.50,109.72 C432.70,92.20 404.85,80.82 370.50,73.33 C358.21,70.66 356.21,70.50 334.00,70.57 C316.77,70.62 307.90,71.08 300.76,72.32 C295.40,73.24 289.67,74.00 288.01,74.00 C286.35,74.00 285.00,74.48 285.00,75.07 C285.00,75.80 287.56,75.91 293.00,75.44 C297.40,75.06 301.00,74.99 301.00,75.30 C301.00,75.61 298.41,76.37 295.25,76.99 C277.16,80.56 260.94,84.39 249.25,87.85 C241.96,90.00 236.00,91.43 236.00,91.02 C236.00,89.90 249.76,84.35 259.65,81.48 C264.45,80.09 268.59,78.74 268.86,78.48 C269.12,78.21 266.80,78.00 263.70,78.00 C258.98,78.00 257.89,77.66 256.93,75.87 C255.89,73.93 255.24,73.80 249.53,74.39 C243.20,75.04 232.01,78.39 226.24,81.38 C224.51,82.27 221.93,83.00 220.50,83.00 C219.08,83.00 216.81,84.10 215.46,85.45 C214.12,86.79 210.88,89.34 208.26,91.10 C193.98,100.74 180.91,111.16 164.12,126.30 C160.49,129.57 154.14,133.87 149.59,136.13 C145.14,138.34 139.36,141.94 136.75,144.13 C134.14,146.33 132.00,147.70 132.00,147.20 C132.00,146.19 137.68,140.75 160.84,119.61 C169.21,111.97 175.86,105.53 175.62,105.29 C174.73,104.40 162.03,112.94 153.43,120.21 C83.92,178.98 53.31,265.92 69.09,359.81 C73.19,384.23 85.74,419.32 98.64,442.42 C128.84,496.51 174.10,535.34 228.00,553.40 C250.49,560.94 260.02,562.03 281.01,559.48 ZM 295.00 530.50 C295.00,529.51 294.01,529.00 292.06,529.00 C288.93,529.00 287.14,530.49 289.24,531.34 C291.93,532.42 295.00,531.97 295.00,530.50 ZM 284.58 530.13 C284.28,529.64 281.22,529.27 277.77,529.29 C264.42,529.37 235.82,521.27 215.74,511.72 C194.77,501.74 176.23,488.39 158.38,470.41 C146.14,458.08 139.44,449.86 130.34,436.00 C94.81,381.92 84.72,315.04 102.63,252.31 C112.28,218.49 131.70,183.82 153.90,160.75 C156.95,157.59 159.07,155.00 158.62,155.00 C156.63,155.00 151.36,159.87 143.60,168.88 C108.44,209.72 91.04,256.59 91.01,310.54 C90.99,343.26 95.04,365.33 106.41,394.50 C134.89,467.60 191.63,517.69 258.76,529.00 C270.15,530.92 285.48,531.59 284.58,530.13 ZM 288.97 517.04 C289.78,516.53 290.15,515.82 289.80,515.46 C288.92,514.59 285.00,515.90 285.00,517.07 C285.00,518.26 287.07,518.24 288.97,517.04 ZM 286.57 511.89 C287.47,510.42 285.17,509.03 281.81,509.02 C278.25,509.00 277.27,510.78 280.19,511.95 C283.38,513.23 285.75,513.21 286.57,511.89 ZM 275.44 511.10 C275.99,510.20 270.95,508.00 268.35,508.00 C266.37,508.00 266.70,510.78 268.75,511.31 C271.85,512.12 274.87,512.02 275.44,511.10 ZM 304.14 509.88 C308.93,508.85 309.22,508.63 307.50,507.38 C305.19,505.69 302.30,505.59 301.77,507.18 C301.56,507.82 299.61,508.90 297.44,509.57 C294.00,510.63 293.85,510.80 296.20,510.90 C297.69,510.95 301.26,510.49 304.14,509.88 ZM 256.24 507.97 C250.19,505.28 244.10,503.57 243.33,504.34 C242.96,504.70 242.96,505.29 243.31,505.65 C244.61,506.95 254.58,509.93 257.50,509.90 C260.41,509.86 260.37,509.80 256.24,507.97 ZM 232.40 498.27 C230.25,496.66 226.98,494.78 212.00,486.50 C192.16,475.54 183.15,468.70 163.58,449.76 C160.32,446.60 157.39,444.27 157.08,444.59 C156.39,445.29 176.27,464.48 187.50,473.95 C201.92,486.11 212.58,492.55 230.50,499.93 C233.35,501.10 234.66,499.96 232.40,498.27 ZM 306.50 420.51 C317.58,418.18 319.27,415.12 316.98,401.50 C316.43,398.20 315.29,391.02 314.45,385.54 C312.27,371.23 313.61,368.87 324.92,367.10 C329.86,366.32 330.54,366.45 332.67,368.58 C334.96,370.87 335.00,371.27 335.00,391.37 C335.00,402.63 335.27,412.55 335.61,413.42 C336.13,414.77 338.55,415.00 352.20,415.00 C367.11,415.00 368.22,414.87 368.69,413.08 C368.96,412.03 370.32,410.89 371.70,410.54 C380.12,408.43 381.65,403.90 378.93,389.15 C377.84,383.29 375.63,369.27 374.00,358.00 C372.38,346.73 370.84,336.49 370.58,335.25 C370.32,334.01 370.59,333.00 371.16,333.00 C371.74,333.00 371.95,333.69 371.63,334.52 C371.16,335.75 371.41,335.85 372.97,335.02 C376.12,333.33 376.35,331.97 374.02,328.82 C372.76,327.11 372.03,325.00 372.32,323.89 C372.65,322.61 371.71,320.78 369.56,318.50 C367.77,316.59 366.53,314.80 366.82,314.52 C367.26,314.07 366.61,313.93 364.48,314.02 C364.19,314.03 362.74,312.91 361.24,311.52 C359.74,310.13 358.05,309.00 357.48,309.00 C356.91,309.00 355.83,308.15 355.08,307.10 C354.27,305.99 352.75,305.31 351.38,305.46 C350.10,305.60 349.29,305.33 349.59,304.86 C349.88,304.39 349.41,304.00 348.53,304.00 C347.66,304.00 346.51,302.85 345.98,301.44 C345.44,300.03 344.53,299.17 343.96,299.52 C343.39,299.88 338.29,295.88 332.63,290.64 C323.57,282.26 321.93,281.13 318.92,281.25 C317.04,281.33 315.05,281.25 314.50,281.08 C313.95,280.90 311.82,280.82 309.77,280.88 C306.33,280.99 305.46,281.72 298.45,290.25 C294.28,295.34 289.60,300.96 288.07,302.75 C286.54,304.54 285.68,306.00 286.18,306.00 C286.67,306.00 286.50,306.63 285.79,307.40 C285.08,308.16 284.16,308.59 283.75,308.34 C283.34,308.09 283.00,308.55 283.00,309.37 C283.00,310.19 281.84,311.77 280.42,312.89 C279.00,314.00 277.74,315.53 277.63,316.29 C277.52,317.04 274.75,320.66 271.47,324.33 C268.19,327.99 265.46,331.33 265.42,331.75 C265.37,332.16 264.76,333.85 264.07,335.50 C262.94,338.17 263.09,339.05 265.37,343.50 C270.33,353.17 271.00,358.27 271.00,386.35 C271.00,409.87 271.16,412.40 272.75,413.61 C273.71,414.34 275.50,414.95 276.72,414.97 C278.17,414.99 279.50,416.06 280.53,418.05 C281.39,419.73 283.09,421.53 284.30,422.05 C286.97,423.20 297.01,422.51 306.50,420.51 ZM 131.71 396.29 C130.80,395.37 129.70,394.97 129.28,395.39 C128.85,395.82 129.37,396.80 130.43,397.57 C132.93,399.40 133.88,398.45 131.71,396.29 ZM 222.00 306.50 C239.88,305.69 259.23,304.96 265.00,304.87 L 275.50 304.70 L 261.00 303.70 C229.75,301.56 98.00,303.51 98.00,306.12 C98.00,308.13 180.20,308.38 222.00,306.50 ZM 511.92 304.87 C519.85,304.29 527.27,303.46 528.42,303.02 C533.68,301.03 516.98,300.75 464.50,301.97 C433.70,302.68 398.04,303.44 385.25,303.67 C364.41,304.03 358.46,304.78 363.75,306.38 C366.80,307.31 496.87,305.99 511.92,304.87 ZM 574.00 295.11 C574.00,292.91 570.47,288.20 569.53,289.14 C568.63,290.04 571.66,297.00 572.95,297.00 C573.53,297.00 574.00,296.15 574.00,295.11 ZM 268.42 295.13 C268.72,294.65 261.66,292.87 252.73,291.18 C215.72,284.17 185.53,279.66 187.12,281.39 C187.91,282.26 206.84,285.88 234.00,290.36 C251.78,293.29 262.76,295.12 267.19,295.88 C267.57,295.95 268.12,295.61 268.42,295.13 ZM 396.50 291.00 C432.99,284.86 464.19,278.20 457.30,278.03 C452.09,277.90 406.74,285.64 384.50,290.46 C377.90,291.89 371.26,293.33 369.75,293.66 C368.24,293.98 367.00,294.68 367.00,295.20 C367.00,295.73 368.24,295.91 369.75,295.60 C371.26,295.29 383.30,293.22 396.50,291.00 ZM 368.22 287.36 C369.72,286.60 374.22,284.81 378.22,283.39 C394.94,277.45 473.73,245.60 476.42,243.69 C481.86,239.83 477.31,240.89 461.87,247.06 C453.42,250.44 439.98,255.36 432.00,257.98 C424.02,260.61 409.10,266.64 398.84,271.38 C388.58,276.12 379.81,280.00 379.36,280.00 C377.64,280.00 361.00,288.37 361.00,289.23 C361.00,290.25 364.15,289.43 368.22,287.36 ZM 275.39 288.18 C275.67,287.73 273.56,286.54 270.70,285.54 C267.84,284.54 258.75,280.69 250.50,276.99 C242.25,273.29 230.77,268.60 225.00,266.56 C208.94,260.91 196.10,256.10 189.77,253.38 C183.49,250.67 173.18,247.00 171.84,247.00 C169.27,247.00 171.78,248.81 177.25,250.90 C186.61,254.47 200.62,260.48 208.50,264.30 C219.61,269.69 238.02,276.88 256.46,283.03 C276.30,289.64 274.75,289.22 275.39,288.18 ZM 406.00 249.76 C421.23,239.06 427.59,234.00 425.78,234.00 C424.97,234.00 422.32,235.44 419.90,237.20 C417.48,238.96 404.92,247.10 392.00,255.30 C367.32,270.95 358.00,277.45 358.00,279.00 C358.00,280.30 392.08,259.54 406.00,249.76 ZM 278.00 278.59 C278.00,277.01 209.32,230.34 208.38,231.29 C207.75,231.92 228.72,247.62 245.71,259.24 C268.61,274.89 278.00,280.52 278.00,278.59 ZM 361.50 265.12 C380.76,247.71 387.09,241.51 399.37,228.00 C407.12,219.48 419.21,206.67 426.24,199.55 C435.24,190.42 438.69,186.30 437.94,185.55 C436.63,184.26 350.00,270.92 350.00,273.52 C350.00,275.26 351.47,274.19 361.50,265.12 ZM 280.86 265.75 C272.82,256.34 229.14,212.23 215.62,199.87 C190.17,176.59 203.53,192.17 246.50,235.85 C271.63,261.40 282.96,272.00 285.15,272.00 C285.73,272.00 283.79,269.19 280.86,265.75 ZM 360.77 245.00 C373.72,226.46 388.72,203.00 387.62,203.00 C385.98,203.00 343.95,263.28 344.04,265.50 C344.12,267.26 351.77,257.88 360.77,245.00 ZM 288.82 258.25 C280.54,243.35 253.36,203.30 252.27,204.39 C251.53,205.13 254.18,209.42 276.33,243.25 C283.80,254.66 290.39,264.00 290.97,264.00 C291.54,264.00 290.58,261.41 288.82,258.25 ZM 346.67 241.23 C352.81,229.28 359.85,214.55 362.31,208.50 C364.77,202.45 369.76,191.01 373.39,183.07 C377.03,175.13 380.00,168.24 380.00,167.76 C380.00,165.06 377.06,169.80 370.95,182.36 C367.17,190.14 361.81,200.77 359.04,206.00 C352.66,218.02 334.01,260.30 334.00,262.75 C334.00,262.89 334.34,262.99 334.75,262.98 C335.16,262.97 340.53,253.18 346.67,241.23 ZM 297.99 254.25 C292.08,233.06 270.48,169.52 268.36,167.08 C268.16,166.85 267.74,166.93 267.42,167.24 C267.10,167.56 268.41,172.48 270.33,178.16 C272.25,183.85 275.70,195.46 278.01,203.97 C284.22,226.89 296.84,261.00 299.10,261.00 C299.53,261.00 299.02,257.96 297.99,254.25 ZM 308.22 256.25 C307.13,238.68 298.44,181.11 296.60,179.27 C295.70,178.36 295.86,180.61 297.45,190.50 C298.24,195.45 299.84,206.93 301.00,216.00 C302.16,225.07 303.99,238.71 305.06,246.30 C306.13,253.89 307.00,260.30 307.00,260.55 C307.00,260.80 307.34,261.00 307.76,261.00 C308.17,261.00 308.38,258.86 308.22,256.25 ZM 329.78 255.50 C330.40,253.30 332.51,242.05 334.48,230.50 C337.40,213.36 341.26,192.74 343.43,182.75 C343.64,181.79 343.48,181.00 343.07,181.00 C340.87,181.00 327.00,248.03 327.00,258.68 C327.00,262.18 328.34,260.65 329.78,255.50 ZM 320.10 234.96 C321.06,217.35 321.08,200.95 320.16,159.08 C319.52,129.70 318.77,105.43 318.49,105.16 C318.22,104.89 317.78,104.89 317.51,105.15 C316.77,105.90 315.92,254.83 316.64,257.72 C317.98,263.03 318.89,257.03 320.10,234.96 ZM 158.84 186.74 C160.73,180.49 161.06,178.00 159.97,178.00 C158.49,178.00 156.00,184.28 156.00,188.03 C156.00,191.81 157.50,191.12 158.84,186.74 ZM 176.36 142.75 C181.66,135.34 185.41,131.64 187.06,132.19 C187.78,132.43 186.60,134.49 184.13,137.35 C179.94,142.19 179.12,144.00 181.10,144.00 C181.70,144.00 187.66,140.26 194.35,135.68 C201.03,131.11 212.35,123.70 219.50,119.21 C232.54,111.03 244.81,101.12 242.00,101.05 C241.18,101.02 236.53,103.23 231.69,105.95 C226.84,108.67 222.28,110.66 221.55,110.38 C218.53,109.22 213.05,112.89 209.50,118.44 C205.47,124.73 202.35,125.87 201.82,121.25 C201.50,118.53 201.43,118.56 194.78,124.75 C190.12,129.08 187.25,131.00 185.46,131.00 C181.78,131.00 171.00,142.36 171.00,146.23 C171.00,147.76 171.20,149.00 171.45,149.00 C171.70,149.00 173.91,146.19 176.36,142.75 ZM 433.00 112.02 C426.21,106.77 390.97,94.45 385.01,95.25 C382.95,95.53 383.31,95.81 387.00,96.83 C393.27,98.56 413.92,106.28 423.50,110.47 C427.90,112.40 432.40,113.97 433.50,113.97 C435.33,113.96 435.29,113.79 433.00,112.02 ZM 478.87 111.17 C476.82,107.87 456.17,96.44 453.74,97.25 C452.79,97.57 458.32,101.34 471.94,109.67 C478.19,113.50 480.66,114.03 478.87,111.17 ZM 257.00 104.81 L 260.50 102.63 L 257.75 101.62 C256.24,101.07 255.00,100.32 255.00,99.97 C255.00,98.55 260.38,97.00 265.30,97.00 C270.38,97.01 288.40,91.97 286.07,91.19 C284.78,90.76 264.64,94.42 258.50,96.20 C251.13,98.33 243.00,103.57 243.00,106.19 C243.00,108.02 253.51,106.99 257.00,104.81 ZM 202.01 88.17 C200.35,87.62 195.99,92.45 196.03,94.81 C196.05,96.00 197.13,95.34 199.71,92.56 C202.27,89.81 202.96,88.49 202.01,88.17 ZM 380.00 94.00 C380.00,93.45 378.54,93.03 376.75,93.07 C374.03,93.13 373.82,93.28 375.50,94.00 C378.26,95.19 380.00,95.19 380.00,94.00 ZM 363.46 89.07 C364.10,88.04 362.48,87.45 356.30,86.49 C351.48,85.75 341.00,86.82 341.00,88.07 C341.00,88.83 345.47,89.28 358.19,89.81 C360.77,89.91 363.14,89.58 363.46,89.07 ZM 328.92 87.36 C329.15,87.16 324.98,87.00 319.67,87.00 C313.67,87.00 310.00,87.39 310.00,88.04 C310.00,88.99 327.78,88.35 328.92,87.36 ZM 440.42 87.13 C441.38,85.57 425.01,78.99 416.50,77.51 C410.44,76.47 412.94,77.99 425.82,83.18 C438.11,88.15 439.55,88.54 440.42,87.13 ZM 275.50 77.00 C275.16,76.45 274.23,76.00 273.44,76.00 C272.65,76.00 272.00,76.45 272.00,77.00 C272.00,77.55 272.93,78.00 274.06,78.00 C275.19,78.00 275.84,77.55 275.50,77.00 ZM 281.00 76.00 C281.00,75.45 280.35,75.00 279.56,75.00 C278.77,75.00 277.84,75.45 277.50,76.00 C277.16,76.55 277.81,77.00 278.94,77.00 C280.07,77.00 281.00,76.55 281.00,76.00 ZM 391.86 68.38 C393.57,68.04 394.72,67.36 394.42,66.88 C393.32,65.09 379.00,66.25 379.00,68.12 C379.00,69.13 387.27,69.30 391.86,68.38 ZM 280.58 66.00 C281.91,66.00 283.00,65.51 283.00,64.92 C283.00,63.62 277.00,64.69 275.50,66.25 C274.81,66.97 275.08,67.09 276.33,66.65 C277.34,66.29 279.25,66.00 280.58,66.00 ZM 289.00 64.00 C289.00,63.45 288.10,63.00 287.00,63.00 C285.90,63.00 285.00,63.45 285.00,64.00 C285.00,64.55 285.90,65.00 287.00,65.00 C288.10,65.00 289.00,64.55 289.00,64.00 ZM 307.00 62.51 C318.87,61.68 323.10,60.97 322.45,59.91 C320.84,57.31 293.00,60.42 293.00,63.20 C293.00,63.73 294.24,63.92 295.75,63.63 C297.26,63.34 302.33,62.84 307.00,62.51 ZM 341.56 61.43 C343.38,59.95 343.27,59.89 339.59,60.39 C337.43,60.69 335.21,61.39 334.64,61.96 C332.91,63.69 339.38,63.20 341.56,61.43 ZM 82.00 392.72 C82.00,392.56 81.05,389.75 79.89,386.47 C71.76,363.50 67.03,334.91 67.01,308.50 C67.00,296.10 70.44,267.58 73.40,255.49 C77.95,236.92 85.53,216.79 94.29,200.00 C102.47,184.32 122.15,155.81 123.71,157.38 C123.97,157.63 122.38,160.24 120.18,163.17 C111.13,175.21 95.94,203.25 89.01,220.71 C82.62,236.81 77.57,256.82 74.93,276.50 C73.06,290.48 72.86,295.60 73.32,317.00 C73.65,332.11 74.48,345.52 75.49,352.00 C77.24,363.16 82.39,388.32 83.53,391.25 C83.93,392.27 83.75,393.00 83.11,393.00 C82.50,393.00 82.00,392.87 82.00,392.72 ZM 518.32 172.55 C515.71,170.25 515.66,170.06 517.60,170.03 C520.03,169.99 523.64,173.48 522.14,174.42 C521.59,174.75 519.87,173.91 518.32,172.55 ZM 511.05 162.73 C507.59,160.54 508.29,159.35 512.43,160.39 C514.80,160.99 516.55,163.54 515.16,164.40 C514.75,164.65 512.90,163.91 511.05,162.73 ZM 159.00 136.45 C159.00,135.06 162.16,130.00 163.03,130.00 C164.34,130.00 164.26,130.60 162.47,134.05 C161.15,136.60 159.00,138.09 159.00,136.45 ZM 189.04 116.71 C188.95,114.91 193.14,108.02 195.21,106.57 C200.34,102.97 199.12,105.92 192.11,114.00 C190.45,115.93 189.06,117.14 189.04,116.71 ZM 208.00 103.69 C208.00,101.67 219.88,95.28 224.00,95.08 C225.56,95.00 223.45,96.39 213.75,101.81 C209.93,103.94 208.00,104.57 208.00,103.69 ZM 308.60 76.16 C307.93,75.08 310.20,74.00 313.17,74.00 C314.32,74.00 314.99,74.53 314.76,75.25 C314.26,76.77 309.42,77.49 308.60,76.16 ZM 289.23 406.75 C288.61,405.51 287.20,398.88 286.08,392.00 C281.35,363.06 280.00,353.85 280.00,350.67 C280.00,346.82 285.29,338.01 291.82,330.97 C294.11,328.51 295.98,325.94 295.99,325.25 C295.99,324.56 296.56,323.99 297.25,323.98 C298.15,323.97 298.18,323.76 297.36,323.23 C296.54,322.70 296.60,322.14 297.61,321.21 C298.68,320.21 299.00,320.20 299.00,321.16 C299.00,321.84 300.27,320.39 301.83,317.93 C304.79,313.25 315.00,303.98 315.00,305.97 C315.00,306.60 315.45,306.84 316.00,306.50 C316.55,306.16 317.00,306.36 317.00,306.94 C317.00,307.52 317.34,307.95 317.75,307.88 C319.67,307.58 321.07,308.19 323.92,310.59 C325.62,312.01 327.00,312.87 327.00,312.50 C327.00,312.13 329.28,313.64 332.06,315.86 C334.84,318.07 338.44,320.47 340.06,321.19 C341.68,321.90 343.00,322.85 343.00,323.30 C343.00,323.75 343.45,323.84 344.00,323.50 C344.92,322.93 345.45,324.30 345.09,326.32 C345.01,326.78 345.38,326.88 345.90,326.56 C347.22,325.74 352.15,328.05 354.27,330.48 C355.24,331.59 356.98,333.53 358.15,334.78 C359.36,336.08 360.46,338.87 360.71,341.28 C360.96,343.60 361.80,348.34 362.58,351.81 C363.57,356.20 364.00,364.67 364.00,379.56 L 364.00 401.00 L 359.50 401.00 C353.62,401.00 351.49,398.81 350.08,391.34 C349.47,388.13 348.55,383.25 348.02,380.50 C347.49,377.75 346.74,373.02 346.37,370.00 C345.46,362.76 343.57,358.42 340.41,356.35 C338.13,354.85 336.89,354.79 329.67,355.81 C313.57,358.07 303.05,359.85 302.03,360.48 C301.37,360.89 301.00,369.69 301.00,385.06 L 301.00 409.00 L 295.67 409.00 C291.14,409.00 290.17,408.66 289.23,406.75 ZM 325.21 345.00 C326.06,345.00 327.32,344.33 328.00,343.50 C328.68,342.67 330.08,342.00 331.10,342.00 C332.26,342.00 333.20,341.04 333.60,339.45 C334.45,336.07 333.62,335.45 330.84,337.40 C329.58,338.28 328.99,339.01 329.53,339.03 C331.34,339.10 325.79,343.00 323.89,343.00 C322.16,343.00 322.00,342.14 322.00,333.00 C322.00,323.67 322.13,323.00 324.00,323.00 C325.10,323.00 326.00,322.55 326.00,322.00 C326.00,321.45 325.10,321.00 323.99,321.00 C322.28,321.00 322.16,320.72 323.15,319.13 C324.77,316.54 323.53,314.00 320.64,314.00 C317.53,314.00 316.46,316.74 318.63,319.14 C320.23,320.91 320.18,321.00 317.65,321.00 C316.19,321.00 315.00,321.45 315.00,322.00 C315.00,322.55 316.19,323.00 317.65,323.00 L 320.30 323.00 L 319.67 332.65 C319.32,337.96 318.82,342.52 318.55,342.78 C317.56,343.77 312.42,340.87 311.48,338.79 C310.05,335.62 308.00,335.35 308.00,338.33 C308.00,340.28 308.94,341.28 312.32,342.91 C314.69,344.06 317.12,345.00 317.71,345.00 C318.30,345.00 319.07,345.74 319.41,346.64 C320.00,348.15 320.18,348.15 321.85,346.64 C322.84,345.74 324.35,345.00 325.21,345.00 ZM 213.00 118.58 C213.00,116.98 218.95,112.00 220.87,112.00 C222.80,112.00 219.04,116.93 215.85,118.58 C213.34,119.88 213.00,119.88 213.00,118.58 Z" fill="rgb(243,227,253)"/>
</g>
</svg>